# xmcd CD database file
#
# Track frame offsets:
#	150
#	14529
#	26879
#	40048
#	52497
#	66945
#	79497
#	93584
#	105318
#	118700
#	130697
#	143883
#
# Disc length: 2094 seconds
#
# Revision: 0
# Processed by: cddbd v1.5.2PL0 Copyright (c) Steve Scherf et al.
# Submitted via: CDex 1.70beta1
#
DISCID=ac082c0c
DTITLE=Bob Wallis - Vintage Bob Wallis CD 01
DYEAR=1900
DGENRE=Jazz
TTITLE0=Le Reve Passe 
TTITLE1=Down Home Rag 
TTITLE2=Old Stack-O-Lee Blues 
TTITLE3=Everybody Loves Saturday Night 
TTITLE4=I'll Take You Home Again Kathleen 
TTITLE5=Alla Turka - Savoy Blues (version 3) 
TTITLE6=Savoy Blues (version 1) 
TTITLE7=Where Shall I Be (When The Trumpet Sounds) 
TTITLE8=Kansas City Man Blues 
TTITLE9=Captain Morgan 
TTITLE10=Sons OF The Brave 
TTITLE11=L'Oiseau Bleu 
EXTD=
EXTT0=
EXTT1=
EXTT2=
EXTT3=
EXTT4=
EXTT5=
EXTT6=
EXTT7=
EXTT8=
EXTT9=
EXTT10=
EXTT11=
PLAYORDER=
